<svg width="15" height="15" viewBox="0 0 15 15" fill="none" xmlns="http://www.w3.org/2000/svg">
<path d="M7.72222 1C6.12627 0.999181 4.58214 1.56649 3.36634 2.60035C2.15053 3.63421 1.34245 5.0671 1.08679 6.64244C0.831122 8.21778 1.14458 9.83268 1.97102 11.198C2.79746 12.5633 4.08292 13.5898 5.59722 14.0938C5.93472 14.1563 6.05659 13.95 6.05659 13.7813V12.6406C4.18159 13.0469 3.79409 11.7406 3.79409 11.7406C3.67007 11.3273 3.40023 10.9731 3.03472 10.7438C2.42534 10.3281 3.08159 10.3344 3.08159 10.3344C3.29445 10.3642 3.49771 10.4421 3.67587 10.5624C3.85404 10.6826 4.00242 10.8419 4.10972 11.0281C4.70972 12.0563 5.67222 11.7594 6.06597 11.5875C6.09705 11.2461 6.24885 10.927 6.49409 10.6875C5.00034 10.5188 3.43159 9.94375 3.43159 7.36875C3.42169 6.70074 3.67024 6.05473 4.12534 5.56563C3.91858 4.9864 3.94207 4.34991 4.19097 3.7875C4.19097 3.7875 4.75347 3.60625 6.03784 4.475C7.1386 4.175 8.29958 4.175 9.40034 4.475C10.6847 3.60625 11.2472 3.7875 11.2472 3.7875C11.4942 4.35034 11.5177 4.98611 11.3128 5.56563C11.7671 6.05504 12.0145 6.70111 12.0035 7.36875C12.0035 9.95 10.441 10.5156 8.93784 10.6844C9.09913 10.8478 9.22335 11.044 9.30208 11.2597C9.3808 11.4754 9.41218 11.7055 9.39409 11.9344V13.7781C9.39409 14 9.51597 14.1656 9.85659 14.0906C11.3693 13.5847 12.6528 12.5571 13.4773 11.1916C14.3018 9.82616 14.6135 8.21187 14.3569 6.63756C14.1002 5.06325 13.2918 3.63161 12.0762 2.59875C10.8607 1.56589 9.31732 0.999179 7.72222 1" stroke="black" stroke-width="0.5" stroke-linecap="round" stroke-linejoin="round"/>
</svg>
