<svg width="14" height="14" viewBox="0 0 14 14" fill="none" xmlns="http://www.w3.org/2000/svg">
<path d="M10.0173 1H4.32526C2.4886 1 1 2.48886 1 4.32526V10.0173C1 11.854 2.48886 13.3426 4.32553 13.3426H10.0171C11.8537 13.3426 13.3426 11.8537 13.3426 10.0171V4.32526C13.3426 2.4886 11.854 1 10.0173 1Z" stroke="black" stroke-width="0.5" stroke-miterlimit="10"/>
<path d="M7.17132 10.1506C8.81675 10.1506 10.1506 8.81675 10.1506 7.17132C10.1506 5.5259 8.81675 4.19202 7.17132 4.19202C5.5259 4.19202 4.19202 5.5259 4.19202 7.17132C4.19202 8.81675 5.5259 10.1506 7.17132 10.1506Z" stroke="black" stroke-width="0.5" stroke-miterlimit="10"/>
<path d="M10.7889 4.44201C11.2795 4.44201 11.6772 4.04428 11.6772 3.55366C11.6772 3.06304 11.2795 2.66531 10.7889 2.66531C10.2982 2.66531 9.90051 3.06304 9.90051 3.55366C9.90051 4.04428 10.2982 4.44201 10.7889 4.44201Z" stroke="black" stroke-width="0.5"/>
</svg>
