<svg width="14" height="14" viewBox="0 0 14 14" fill="none" xmlns="http://www.w3.org/2000/svg">
<path d="M5.25 3.9375C5.25 4.02403 5.22434 4.10862 5.17627 4.18056C5.12819 4.25251 5.05987 4.30858 4.97992 4.3417C4.89998 4.37481 4.81201 4.38347 4.72715 4.36659C4.64228 4.34971 4.56433 4.30804 4.50314 4.24686C4.44196 4.18567 4.40029 4.10772 4.38341 4.02285C4.36653 3.93799 4.37519 3.85002 4.4083 3.77008C4.44142 3.69013 4.49749 3.62181 4.56944 3.57373C4.64138 3.52566 4.72597 3.5 4.8125 3.5C4.92853 3.5 5.03981 3.54609 5.12186 3.62814C5.20391 3.71019 5.25 3.82147 5.25 3.9375ZM4.8125 5.46875C4.75448 5.46875 4.69884 5.4918 4.65782 5.53282C4.6168 5.57384 4.59375 5.62948 4.59375 5.6875V9.1875C4.59375 9.24552 4.6168 9.30116 4.65782 9.34218C4.69884 9.3832 4.75448 9.40625 4.8125 9.40625C4.87052 9.40625 4.92616 9.3832 4.96718 9.34218C5.0082 9.30116 5.03125 9.24552 5.03125 9.1875V5.6875C5.03125 5.62948 5.0082 5.57384 4.96718 5.53282C4.92616 5.4918 4.87052 5.46875 4.8125 5.46875ZM8.09375 5.46875C7.84508 5.46849 7.59924 5.52157 7.37283 5.6244C7.14641 5.72723 6.94469 5.87742 6.78125 6.06484V5.6875C6.78125 5.62948 6.7582 5.57384 6.71718 5.53282C6.67616 5.4918 6.62052 5.46875 6.5625 5.46875C6.50448 5.46875 6.44884 5.4918 6.40782 5.53282C6.3668 5.57384 6.34375 5.62948 6.34375 5.6875V9.1875C6.34375 9.24552 6.3668 9.30116 6.40782 9.34218C6.44884 9.3832 6.50448 9.40625 6.5625 9.40625C6.62052 9.40625 6.67616 9.3832 6.71718 9.34218C6.7582 9.30116 6.78125 9.24552 6.78125 9.1875V7.21875C6.78125 6.87065 6.91953 6.53681 7.16567 6.29067C7.41181 6.04453 7.74565 5.90625 8.09375 5.90625C8.44185 5.90625 8.77569 6.04453 9.02183 6.29067C9.26797 6.53681 9.40625 6.87065 9.40625 7.21875V9.1875C9.40625 9.24552 9.4293 9.30116 9.47032 9.34218C9.51134 9.3832 9.56698 9.40625 9.625 9.40625C9.68302 9.40625 9.73866 9.3832 9.77968 9.34218C9.8207 9.30116 9.84375 9.24552 9.84375 9.1875V7.21875C9.84231 6.75506 9.65747 6.31078 9.32959 5.98291C9.00172 5.65503 8.55744 5.47019 8.09375 5.46875Z" fill="black"/>
<circle cx="7" cy="7" r="6.75" stroke="black" stroke-width="0.5"/>
</svg>
