<svg width="13" height="11" viewBox="0 0 13 11" fill="none" xmlns="http://www.w3.org/2000/svg">
<path d="M11.3302 0.100433C11.8839 0.100433 12.1913 0.115741 12.5829 0.507279C12.9744 0.898816 12.9897 1.20624 12.9897 1.75996V8.4409C12.9897 8.99462 12.9744 9.30204 12.5829 9.69358C12.1913 10.0851 11.8839 10.1004 11.3302 10.1004H2.1439C1.59019 10.1004 1.28276 10.0851 0.891227 9.69358C0.49969 9.30204 0.484375 8.99462 0.484375 8.4409V1.75996C0.484375 1.20624 0.49969 0.898823 0.891227 0.507286C1.28276 0.115748 1.59019 0.100433 2.1439 0.100433H11.3302ZM12.5829 2.98007L6.94917 6.29549C6.89591 6.32676 6.83637 6.34582 6.77485 6.35131C6.71333 6.3568 6.65136 6.34857 6.59341 6.32722L6.52493 6.29549L0.891227 2.98174V8.4409C0.891227 8.77314 1.02321 9.09176 1.25813 9.32668C1.49305 9.5616 1.81167 9.69358 2.1439 9.69358H11.3302C11.6624 9.69358 11.981 9.5616 12.216 9.32668C12.4509 9.09176 12.5829 8.77314 12.5829 8.4409V2.98007ZM11.3302 0.507286H2.1439C1.81167 0.507286 1.49305 0.639264 1.25813 0.874186C1.02321 1.10911 0.891227 1.42773 0.891227 1.75996V2.44043L6.73705 5.87945L12.5829 2.43876V1.75996C12.5829 1.42773 12.4509 1.10911 12.216 0.874186C11.981 0.639264 11.6624 0.507286 11.3302 0.507286Z" fill="#393939"/>
</svg>
