<svg width="12" height="12" viewBox="0 0 12 12" fill="none" xmlns="http://www.w3.org/2000/svg">
<path d="M7.48479 0.666165C7.50195 0.602009 7.54388 0.547295 7.60138 0.514057C7.65887 0.480819 7.72722 0.471779 7.79137 0.488926C8.68294 0.728678 9.49585 1.1985 10.1487 1.85133C10.8015 2.50415 11.2713 3.31706 11.5111 4.20863C11.52 4.24054 11.5226 4.27391 11.5185 4.30681C11.5145 4.33971 11.5039 4.37148 11.4875 4.40027C11.4711 4.42907 11.4492 4.45432 11.4229 4.47456C11.3967 4.49481 11.3667 4.50964 11.3346 4.5182C11.3026 4.52676 11.2692 4.52888 11.2364 4.52443C11.2035 4.51999 11.1719 4.50907 11.1433 4.4923C11.1147 4.47554 11.0897 4.45326 11.0698 4.42677C11.0499 4.40028 11.0354 4.37009 11.0273 4.33797C10.8104 3.53136 10.3853 2.79592 9.7947 2.2053C9.20409 1.61468 8.46864 1.18964 7.66203 0.972749C7.59787 0.955592 7.54316 0.913655 7.50992 0.85616C7.47668 0.798666 7.46764 0.730324 7.48479 0.666165V0.666165ZM7.1434 2.90829C7.61037 3.03387 8.03615 3.27996 8.37808 3.6219C8.72001 3.96384 8.96608 4.38962 9.09165 4.8566C9.0999 4.88864 9.11442 4.91872 9.13436 4.94512C9.1543 4.97151 9.17928 4.99369 9.20785 5.01038C9.23641 5.02707 9.268 5.03793 9.30079 5.04234C9.33357 5.04675 9.36691 5.04462 9.39887 5.03607C9.43083 5.02752 9.46078 5.01273 9.48698 4.99254C9.51319 4.97235 9.53514 4.94717 9.55156 4.91845C9.56798 4.88973 9.57855 4.85804 9.58265 4.82521C9.58676 4.79239 9.58432 4.75907 9.57547 4.7272C9.42705 4.17526 9.1362 3.67202 8.73206 3.26788C8.32792 2.86374 7.82468 2.57289 7.27274 2.42447C7.24083 2.41551 7.20746 2.41299 7.17456 2.41703C7.14166 2.42107 7.10989 2.4316 7.0811 2.44801C7.0523 2.46443 7.02705 2.48639 7.0068 2.51264C6.98656 2.53888 6.97173 2.56889 6.96317 2.60091C6.95461 2.63293 6.95249 2.66633 6.95694 2.69917C6.96138 2.73202 6.9723 2.76366 6.98907 2.79225C7.00583 2.82084 7.02811 2.84582 7.0546 2.86574C7.08109 2.88566 7.11127 2.90012 7.1434 2.90829V2.90829ZM11.9946 9.15623C11.8936 9.94168 11.5101 10.6635 10.9157 11.1868C10.3214 11.7102 9.55683 11.9992 8.76491 12C3.93194 12 0 8.06806 0 3.2351C0.000778968 2.4432 0.28981 1.67867 0.813105 1.08431C1.3364 0.489956 2.05817 0.106422 2.84359 0.00535387C3.00494 -0.0139951 3.16822 0.0194093 3.30902 0.100571C3.44981 0.181734 3.56055 0.306292 3.62466 0.455619L4.88249 3.39036C4.93143 3.50422 4.95138 3.62843 4.94056 3.75189C4.92975 3.87535 4.8885 3.9942 4.82051 4.09781L3.77899 5.68927C3.75541 5.72458 3.74135 5.76538 3.73817 5.80771C3.73499 5.85005 3.7428 5.89249 3.76083 5.93093C4.25648 6.94204 5.07631 7.75815 6.08967 8.24918C6.12833 8.2671 6.17097 8.27469 6.21344 8.2712C6.25591 8.26771 6.29674 8.25326 6.33196 8.22928L7.89937 7.18406C8.00327 7.11454 8.12291 7.07212 8.2474 7.06068C8.37189 7.04925 8.49726 7.06915 8.61208 7.11857L11.5444 8.37534C11.6937 8.43946 11.8183 8.55018 11.8994 8.69095C11.9805 8.83172 12.0139 8.99497 11.9946 9.15629L11.9946 9.15623ZM11.347 8.83562L8.41481 7.57892C8.37652 7.56245 8.33472 7.55582 8.29322 7.55962C8.25171 7.56343 8.21181 7.57755 8.17716 7.60071L6.6098 8.64592C6.50202 8.71808 6.37736 8.76102 6.248 8.77054C6.11865 8.78005 5.98904 8.75582 5.87186 8.7002C4.75745 8.16011 3.85587 7.26258 3.31076 6.15062V6.15068C3.25482 6.0342 3.22995 5.90523 3.23858 5.7763C3.2472 5.64737 3.28902 5.52286 3.35996 5.41486L4.40149 3.8236C4.42415 3.78904 4.4379 3.74941 4.4415 3.70825C4.44511 3.66708 4.43846 3.62566 4.42215 3.5877L3.16432 0.652955C3.14527 0.608077 3.11354 0.569735 3.07301 0.542633C3.03249 0.515531 2.98493 0.500847 2.93618 0.500383C2.92624 0.500373 2.91631 0.501 2.90644 0.502261C2.24192 0.587807 1.63127 0.912356 1.18857 1.41528C0.745869 1.9182 0.501407 2.56509 0.500852 3.2351C0.500852 7.79191 4.20809 11.4991 8.76491 11.4991C9.43491 11.4986 10.0818 11.2541 10.5847 10.8114C11.0876 10.3687 11.4121 9.75802 11.4977 9.09349C11.5038 9.04002 11.4924 8.986 11.4653 8.93953C11.4381 8.89305 11.3966 8.85662 11.347 8.83568V8.83562Z" fill="#393939"/>
</svg>
