<svg width="14" height="12" viewBox="0 0 14 12" fill="none" xmlns="http://www.w3.org/2000/svg">
<path d="M13.5509 0.185738C13.4452 0.0946295 13.3166 0.0341239 13.1789 0.0107831C13.0412 -0.0125576 12.8997 0.0021575 12.7698 0.0533326L0.97091 4.67764C0.816692 4.73811 0.686244 4.84677 0.599083 4.98736C0.511922 5.12796 0.472733 5.29293 0.487378 5.45759C0.502023 5.62225 0.569715 5.77776 0.680328 5.90084C0.790941 6.02393 0.938528 6.10798 1.10101 6.14042L4.30356 6.77948V10.7231C4.30197 10.8748 4.34632 11.0235 4.43082 11.1496C4.51533 11.2758 4.63604 11.3736 4.77716 11.4301C4.87169 11.4696 4.97311 11.4901 5.07559 11.4904C5.17576 11.4901 5.27486 11.4699 5.36716 11.4311C5.45946 11.3923 5.5431 11.3356 5.61325 11.2642L7.44142 9.44041L10.1389 11.8085C10.2778 11.9317 10.4572 11.9998 10.6431 12C10.724 11.9999 10.8043 11.9872 10.8812 11.9624C11.0079 11.9223 11.122 11.8497 11.2119 11.7519C11.3017 11.654 11.3644 11.5344 11.3934 11.4049L13.7981 0.936674C13.8295 0.800915 13.8231 0.659177 13.7795 0.526811C13.7359 0.394444 13.6569 0.276495 13.5509 0.185738V0.185738ZM0.996738 5.41244C0.990398 5.35734 1.00286 5.30172 1.03212 5.25456C1.06138 5.2074 1.10571 5.17146 1.15797 5.15254L11.9735 0.913586L4.49996 6.29833L1.20132 5.64013C1.14651 5.63068 1.0965 5.60306 1.05938 5.56174C1.02225 5.52042 1.00018 5.46782 0.996738 5.41244V5.41244ZM5.25153 10.9035C5.21576 10.9392 5.1702 10.9635 5.12059 10.9733C5.07099 10.9831 5.01957 10.9781 4.97285 10.9588C4.92613 10.9395 4.88619 10.9068 4.8581 10.8648C4.83 10.8229 4.81501 10.7735 4.81501 10.7231V7.13461L7.05668 9.10264L5.25153 10.9035ZM13.2996 0.822701L10.8948 11.291C10.8849 11.334 10.864 11.3738 10.8341 11.4064C10.8041 11.439 10.7662 11.4632 10.7241 11.4768C10.6819 11.4904 10.637 11.4928 10.5936 11.4838C10.5502 11.4748 10.5099 11.4547 10.4767 11.4255L4.96876 6.58993L13.2582 0.617332C13.28 0.646305 13.2951 0.679782 13.3022 0.715307C13.3094 0.750832 13.3085 0.787505 13.2996 0.822637V0.822701Z" fill="#393939"/>
</svg>
